<?xml version="1.0" encoding="utf-8"?>
<!-- Generator: Adobe Illustrator 22.1.0, SVG Export Plug-In . SVG Version: 6.00 Build 0)  -->
<svg version="1.1" id="Layer_1" xmlns="http://www.w3.org/2000/svg" xmlns:xlink="http://www.w3.org/1999/xlink" x="0px" y="0px"
	 viewBox="0 0 200 200" style="enable-background:new 0 0 200 200;" xml:space="preserve">
<defs>
    <filter id="f1" x="0" y="0" width="200%" height="200%">
            <feDropShadow dx="0" dy="6" stdDeviation="4" flood-color="#202020"/>
    </filter>
</defs>
<style type="text/css">
	.st0{fill:#FFFFFF;}
	.st1{fill:#FFFFFF;}
</style>
<g filter="url(#f1)">
	<g>
		<polygon points="134.1,134.8 120.2,105.6 119.9,101.9 146.9,74.9 138.7,66.7 122.6,81.4 109.3,68.7 123.1,51.1 105.5,33.5 
			110.9,28.1 98.6,15.9 86.5,28 91.9,33.4 50.5,74.8 79.9,104.2 79.8,105.5 66.1,134.7 66.1,150.9 61.6,158.5 139.9,158.5 
			135.3,150.9 		"/>
	</g>
	<polygon class="st1" points="110.8,120.3 102.7,120.3 102.7,112.1 97.3,112.1 97.3,120.3 89.2,120.3 89.2,125.7 97.3,125.7 
		97.3,133.6 102.7,133.6 102.7,125.7 110.8,125.7 	"/>
	<polygon points="146.2,170.9 140.8,163.3 58.1,163.3 52.7,170.9 45.1,170.9 45.1,179.5 154.9,179.5 154.9,170.9 	"/>
</g>
</svg>
