<svg width="180" height="180" xmlns="http://www.w3.org/2000/svg">
 <style type="text/css">.st0{fill:#FFFFF8;}
	.st1{fill:#FFFFFF;}</style>

 <g>
  <title>background</title>
  <rect fill="none" id="canvas_background" height="47.112844" width="47.112844" y="-1" x="-1"/>
 </g>
 <g>
  <title>Layer 1</title>
  <g id="svg_1">
   <g stroke="null" id="svg_2">
    <polygon fill="#000000" stroke="#ffffff" id="svg_3" points="125.40000915527344,134.8000030517578 111.5,105.5999984741211 111.20000457763672,101.9000015258789 138.1999969482422,74.9000015258789 130,66.69999694824219 113.9000015258789,81.4000015258789 100.60000610351562,68.69999694824219 114.4000015258789,51.099998474121094 96.80000305175781,33.5 102.20000457763672,28.100000381469727 89.9000015258789,15.899999618530273 77.80000305175781,28 83.20000457763672,33.400001525878906 41.80000305175781,74.80000305175781 71.20000457763672,104.19999694824219 71.10000610351562,105.5 57.400001525878906,134.6999969482422 57.400001525878906,150.89999389648438 52.900001525878906,158.5 131.1999969482422,158.5 126.60000610351562,150.89999389648438 " stroke-width="7"/>
   </g>
   <polygon fill="#000000" id="svg_4" points="100.80000305175781,120.30000305175781 92.69999694824219,120.30000305175781 92.69999694824219,112.0999984741211 87.30000305175781,112.0999984741211 87.30000305175781,120.30000305175781 79.19999694824219,120.30000305175781 79.19999694824219,125.69999694824219 87.30000305175781,125.69999694824219 87.30000305175781,133.60000610351562 92.69999694824219,133.60000610351562 92.69999694824219,125.69999694824219 100.80000305175781,125.69999694824219 " class="st1" stroke="#ffffff" stroke-width="3"/>
  </g>
 </g>
</svg>