<svg width="180" height="180" xmlns="http://www.w3.org/2000/svg">
<filter id="shadow">
      <feDropShadow dx="0" dy="5" stdDeviation="3" flood-color="#222222"/>
</filter>
 <style type="text/css">.st0{fill:#FFFFF8;}
	.st1{fill:#FFFFFF;}</style>

 <g>
  <title>background</title>
  <rect x="-1" y="-1" width="67.693193" height="67.693193" id="canvas_background" fill="none"/>
 </g>
 <g filter="url(#shadow)">
  <title>Layer 1</title>
  <g id="svg_1">
   <g id="svg_2" stroke="null">
    <polygon stroke-width="7" points="125.40000915527344,134.8000030517578 111.5,105.5999984741211 111.20000457763672,101.9000015258789 138.1999969482422,74.9000015258789 130,66.69999694824219 113.9000015258789,81.4000015258789 100.60000610351562,68.69999694824219 114.4000015258789,51.099998474121094 96.80000305175781,33.5 102.20000457763672,28.100000381469727 89.9000015258789,15.899999618530273 77.80000305175781,28 83.20000457763672,33.400001525878906 41.80000305175781,74.80000305175781 71.20000457763672,104.19999694824219 71.10000610351562,105.5 57.400001525878906,134.6999969482422 57.400001525878906,150.89999389648438 52.900001525878906,158.5 131.1999969482422,158.5 126.60000610351562,150.89999389648438 " id="svg_3" stroke="#000000" fill="#ffffff"/>
   </g>
   <polygon stroke-width="3" stroke="#000000" class="st1" points="100.80000305175781,120.30000305175781 92.69999694824219,120.30000305175781 92.69999694824219,112.0999984741211 87.30000305175781,112.0999984741211 87.30000305175781,120.30000305175781 79.19999694824219,120.30000305175781 79.19999694824219,125.69999694824219 87.30000305175781,125.69999694824219 87.30000305175781,133.60000610351562 92.69999694824219,133.60000610351562 92.69999694824219,125.69999694824219 100.80000305175781,125.69999694824219 " id="svg_4" fill="#000000"/>
  </g>
  <rect id="svg_8" height="2.531642" width="17.721497" y="121.534765" x="80.981024" stroke-opacity="null" stroke-width="3" stroke="#000000" fill="#000000"/>
  <rect id="svg_10" height="18.354407" width="2.848098" y="113.939838" x="88.575951" stroke-opacity="null" stroke-width="3" stroke="#000000" fill="#000000"/>
 </g>
</svg>