<?xml version="1.0" encoding="utf-8"?>
<!-- Generator: Adobe Illustrator 22.1.0, SVG Export Plug-In . SVG Version: 6.00 Build 0)  -->
<svg version="1.1" id="Layer_1" xmlns="http://www.w3.org/2000/svg" xmlns:xlink="http://www.w3.org/1999/xlink" x="0px" y="0px"
	 viewBox="0 0 200 200" style="enable-background:new 0 0 200 200;" xml:space="preserve">
<defs>
    <filter id="f1" x="0" y="0" width="200%" height="200%">
            <feDropShadow dx="8" dy="10" stdDeviation="8" flood-color="#202020"/>
    </filter>
</defs>
<style type="text/css">
	.st0{fill:#FFFFFF;}
	.st1{fill:#FFFFFF;}
</style>
<g filter="url(#f1)">
	<g>
		<g>
			<polygon class="st1" points="64.2,157.2 67.6,151.5 67.6,135.2 81.3,106.1 81.4,103.8 52.6,75 94,33.6 88.6,28.2 98.6,18.2 
				108.8,28.3 103.4,33.7 121.1,51.4 107.3,69 122.6,83.6 138.7,69 144.8,75.1 118.3,101.5 118.7,106.2 132.6,135.4 133.8,151.6 
				137.2,157.2 			"/>
			<path d="M98.6,20.3l8,8l-3.3,3.3l-2.1,2.1l2.1,2.1l15.7,15.7L106.9,67l-1.7,2.1l2,1.9l13.3,12.7l2,1.9l2.1-1.9l14-12.8l4.1,4.1
				L117.8,100l-1,1l0.1,1.4l0.3,3.7l0,0.5l0.2,0.5l13.7,28.7l1.2,15.5l0.1,0.7l0.4,0.6l1.8,3H66.9l1.8-3.1l0.4-0.7v-0.8v-15.5
				L82.5,107l0.2-0.5l0-0.5l0.1-1.3l0.1-1.4l-1-1L54.7,75L94,35.7l2.1-2.1L94,31.5l-3.3-3.3L98.6,20.3 M98.6,16.1L86.5,28.2l5.4,5.4
				L50.5,75l29.4,29.4l-0.1,1.3l-13.7,29.2v16.2l-4.5,7.6h78.3l-4.6-7.6l-1.2-16.1l-13.9-29.2l-0.3-3.7l27-27l-8.2-8.2l-16.1,14.7
				l-13.3-12.7l13.8-17.6l-17.6-17.6l5.4-5.4L98.6,16.1L98.6,16.1z"/>
		</g>
	</g>
	<g>
		<polygon class="st1" points="98.8,132.3 98.8,124.4 90.7,124.4 90.7,122 98.8,122 98.8,113.8 101.2,113.8 101.2,122 109.3,122 
			109.3,124.4 101.2,124.4 101.2,132.3 		"/>
		<polygon points="102.7,112.3 97.3,112.3 97.3,120.5 89.2,120.5 89.2,125.9 97.3,125.9 97.3,133.8 102.7,133.8 102.7,125.9 
			110.8,125.9 110.8,120.5 102.7,120.5 102.7,112.3 		"/>
	</g>
	<g>
		<polygon class="st1" points="46.6,178.2 46.6,172.6 53.5,172.6 58.9,165 140,165 145.4,172.6 153.4,172.6 153.4,178.2 		"/>
		<path d="M139.3,166.5l4.5,6.3l0.9,1.3h1.5h5.7v2.6H48.1v-2.6h4.6h1.5l0.9-1.3l4.5-6.3H139.3 M140.8,163.5H58.1l-5.4,7.6h-7.6v8.6
			h109.8v-8.6h-8.7L140.8,163.5L140.8,163.5z"/>
	</g>
</g>
</svg>
