<svg width="180" height="180" xmlns="http://www.w3.org/2000/svg">
 <style type="text/css">.st0{fill:#FFFFF8;}
	.st1{fill:#FFFFFF;}</style>

 <g>
  <title>background</title>
  <rect fill="none" id="canvas_background" height="182" width="182" y="-1" x="-1"/>
 </g>
 <g>
  <title>Layer 1</title>
  <g id="svg_1">
   <g id="svg_2">
    <polygon id="svg_3" points="89.99999237060547,119.69999694824219 128.69998931884766,139.10000610351562 156.5999984741211,111.19999694824219 134.0999984741211,88.69999694824219 93.59999084472656,114.4000015258789 113.39999389648438,84.19999694824219 92.79999542236328,53 92.79999542236328,42.900001525878906 102.59999084472656,42.900001525878906 102.59999084472656,36.400001525878906 92.79999542236328,36.400001525878906 92.79999542236328,26.600000381469727 86.29999542236328,26.600000381469727 86.29999542236328,36.400001525878906 76.49999237060547,36.400001525878906 76.49999237060547,42.900001525878906 86.29999542236328,42.900001525878906 86.29999542236328,53.20000076293945 66.59999084472656,83.19999694824219 87.69998931884766,115.19999694824219 45.899993896484375,88.69999694824219 23.399993896484375,111.19999694824219 51.299991607666016,139.10000610351562 "/>
    <polygon id="svg_4" points="89.39999389648438,126.5999984741211 46.19999313354492,150.8000030517578 89.29999542236328,150.8000030517578 132.5999984741211,150.8000030517578 "/>
    <polygon id="svg_5" points="51.19999313354492,158 127.5999984741211,158 132.5999984741211,150.8000030517578 89.29999542236328,150.8000030517578 46.19999313354492,150.8000030517578 "/>
   </g>
  </g>
 </g>
</svg>