<?xml version="1.0" encoding="utf-8"?>
<!-- Generator: Adobe Illustrator 22.1.0, SVG Export Plug-In . SVG Version: 6.00 Build 0)  -->
<svg version="1.1" id="Layer_1" xmlns="http://www.w3.org/2000/svg" xmlns:xlink="http://www.w3.org/1999/xlink" x="0px" y="0px"
	 viewBox="0 0 200 200" style="enable-background:new 0 0 200 200;" xml:space="preserve">
<defs>
    <filter id="f1" x="0" y="0" width="200%" height="200%">
            <feDropShadow dx="0" dy="6" stdDeviation="4" flood-color="#202020"/>
    </filter>
</defs>
<style type="text/css">
	.st0{fill:#FFFFFF;}
	.st1{fill:#FFFFFF;}
</style>
<g filter="url(#f1)">
	<g>
		<polygon points="100,119.7 138.7,139.1 166.6,111.2 144.1,88.7 103.6,114.4 123.4,84.2 102.8,53 102.8,42.9 112.6,42.9 
			112.6,36.4 102.8,36.4 102.8,26.6 96.3,26.6 96.3,36.4 86.5,36.4 86.5,42.9 96.3,42.9 96.3,53.2 76.6,83.2 97.7,115.2 55.9,88.7 
			33.4,111.2 61.3,139.1 		"/>
		<polygon points="99.4,126.6 56.2,150.8 99.3,150.8 142.6,150.8 		"/>
		<polygon points="61.2,158 137.6,158 142.6,150.8 99.3,150.8 56.2,150.8 		"/>
	</g>
	<polygon points="145.8,170.9 140.4,163.3 57.7,163.3 52.3,170.9 44.7,170.9 44.7,179.5 154.5,179.5 154.5,170.9 	"/>
</g>
</svg>
