<?xml version="1.0" encoding="utf-8"?>
<!-- Generator: Adobe Illustrator 22.1.0, SVG Export Plug-In . SVG Version: 6.00 Build 0)  -->
<svg version="1.1" id="Layer_1" xmlns="http://www.w3.org/2000/svg" xmlns:xlink="http://www.w3.org/1999/xlink" x="0px" y="0px"
	 viewBox="0 0 200 200" style="enable-background:new 0 0 200 200;" xml:space="preserve">
<defs>
    <filter id="f1" x="0" y="0" width="200%" height="200%">
            <feDropShadow dx="0" dy="6" stdDeviation="4" flood-color="#202020"/>
    </filter>
</defs>
<style type="text/css">
	.st0{fill:#FFFFFF;}
	.st1{fill:#FFFFFF;}
</style>
<g id="knb" filter="url(#f1)">
	<path id="Shape_1_copy_3" d="M136.4,36.6l21,40.8l4.2,60.7l-12.3,1.9l-16.1,18h-51l-21.3-28.6l44.2-30.2l-0.2-19.7L93.4,93.1H71.3
		l-12.6,10.5l-7.4,1L34.7,82l58.6-48.5v-8l-13.6-9.6l20.9,0.2l14.7,17.4L136.4,36.6z"/>
	<path id="Shape_3_copy" class="st0" d="M96.2,46.1l-9.8,8.2l11.5-0.8L96.2,46.1z"/>
	<polygon points="156.6,170.9 151.2,163.3 68.5,163.3 63.1,170.9 55.5,170.9 55.5,179.5 165.3,179.5 165.3,170.9 	"/>
</g>
</svg>
