<svg width="180" height="180" xmlns="http://www.w3.org/2000/svg">
 <style type="text/css">.st0{fill:#FFFFF8;}
	.st1{fill:#FFFFFF;}</style>

 <g>
  <title>background</title>
  <rect fill="none" id="canvas_background" height="59.692308" width="59.692308" y="-1" x="-1"/>
 </g>
 <g>
  <title>Layer 1</title>
  <g id="svg_1">
   <g id="svg_2">
    <polygon fill="#ffffff" id="svg_3" points="89.99999237060547,109.5173014998436 128.69998168945312,128.9172801375389 156.60000610351562,101.0173014998436 134.10000610351562,78.5173014998436 93.59999084472656,104.21730607748032 113.39999389648438,74.0173014998436 92.79999542236328,42.81731218099594 92.79999542236328,32.71731370687485 102.59999084472656,32.71731370687485 102.59999084472656,26.217327058315277 92.79999542236328,26.217327058315277 92.79999542236328,16.417325913906097 86.29999542236328,16.417325913906097 86.29999542236328,26.217327058315277 76.49999237060547,26.217327058315277 76.49999237060547,32.71731370687485 86.29999542236328,32.71731370687485 86.29999542236328,43.01730912923813 66.59999084472656,73.0173014998436 87.69998931884766,105.0173014998436 45.899993896484375,78.5173014998436 23.399993896484375,101.0173014998436 51.299991607666016,128.9172801375389 " stroke-width="7" stroke="#000000"/>
   </g>
  </g>
  <path stroke="#000000" transform="rotate(-90 90.00000000000004,142.1066589355469) " id="svg_7" d="m74.23419,107.73184l17.19907,0l14.33255,34.37482l-14.33255,34.37482l-17.19907,0l0,-68.74964z" stroke-width="7" fill="#ffffff"/>
  <rect stroke="#000000" id="svg_6" height="7.258034" width="10.483825" y="103.386647" x="84.758084" stroke-width="7" fill="#000000"/>
 </g>
</svg>