<?xml version="1.0" encoding="utf-8"?>
<!-- Generator: Adobe Illustrator 22.1.0, SVG Export Plug-In . SVG Version: 6.00 Build 0)  -->
<svg version="1.1" id="Layer_1" xmlns="http://www.w3.org/2000/svg" xmlns:xlink="http://www.w3.org/1999/xlink" x="0px" y="0px"
	 viewBox="0 0 200 200" style="enable-background:new 0 0 200 200;" xml:space="preserve">
<style type="text/css">
	.st0{fill:#FFFFF8;}
	.st1{fill:#FFFFFF;}
</style>
<g>
	<g>
		<g>
			<path class="st1" d="M102,119.2l-0.9-1.3l42.7-27.1l20.6,20.6l-26.1,26.1L102,119.2z M35.5,111.4l20.6-20.6l43.3,27.4l-0.3,0.4
				l-37.6,18.8L35.5,111.4z M78.4,83.4l19.4-29.6V41.6H88v-3.5h9.8v-9.8h3.5v9.8h9.8v3.5h-9.8v12.1l20.3,30.8l-21.2,32.4L78.4,83.4z
				"/>
			<path d="M99.8,29.8v6.8v3h3h6.8v0.5h-6.8h-3v3v10.1v0.9l0.5,0.8l19.5,29.6l-18.7,28.5l-0.7,1.1l-0.2-0.3l-20-30.4L98.8,55
				l0.5-0.7v-0.9V43.1v-3h-3h-6.8v-0.5h6.8h3v-3v-6.8H99.8 M56.3,92.7l39.8,25.2l0.5,0.3l-34.7,17.4l-24.2-24.2L56.3,92.7
				 M143.7,92.7l18.7,18.7l-24.2,24.2l-34.7-17.4l1.8-1.1L143.7,92.7 M102.8,26.8h-6.5v9.8h-9.8v6.5h9.8v10.3l-19.7,30l21.1,32
				L55.9,88.9l-22.5,22.5l27.9,27.9l38.7-19.4l38.7,19.4l27.9-27.9l-22.5-22.5l-40.5,25.7l19.8-30.2l-20.6-31.2V43.1h9.8v-6.5h-9.8
				V26.8L102.8,26.8z"/>
		</g>
		<g>
			<polygon class="st1" points="62,156.7 58.4,151.5 99.4,128.5 140.4,151.5 136.8,156.7 			"/>
			<path d="M99.4,130.2l38.9,21.8l-2.2,3.2H62.8l-2.2-3.2L99.4,130.2 M99.4,126.8L56.2,151l5,7.2h76.4l5-7.2L99.4,126.8L99.4,126.8z
				"/>
		</g>
	</g>
	<g>
		<polygon class="st1" points="46.2,178.2 46.2,172.6 53.1,172.6 58.5,165 139.6,165 145,172.6 153,172.6 153,178.2 		"/>
		<path d="M138.9,166.5l4.5,6.3l0.9,1.3h1.5h5.7v2.6H47.7v-2.6h4.6h1.5l0.9-1.3l4.5-6.3H138.9 M140.4,163.5H57.7l-5.4,7.6h-7.6v8.6
			h109.8v-8.6h-8.7L140.4,163.5L140.4,163.5z"/>
	</g>
</g>
<rect x="98.3" y="27.3" transform="matrix(-1.836970e-16 1 -1 -1.836970e-16 139.363 -59.648)" width="2.5" height="25.1"/>
<rect x="98" y="29.1" transform="matrix(-1 -1.224647e-16 1.224647e-16 -1 198.4477 83.4149)" width="2.5" height="25.1"/>
</svg>
