<svg width="180" height="180" xmlns="http://www.w3.org/2000/svg">
 <style type="text/css">.st0{fill:#FFFFF8;}
	.st1{fill:#FFFFFF;}</style>
<filter id="shadow">
      <feDropShadow dx="0" dy="3" stdDeviation="3" flood-color="#222222"/>
</filter> 
 <g>
  <title>background</title>
  <rect fill="none" id="canvas_background" height="182" width="182" y="-1" x="-1"/>
 </g>
 <g filter="url(#shadow)">
  <title>Layer 1</title>
  <g id="svg_1">
   <path id="svg_2" d="m135.7,131.1l28.1,-81.9l-37.8,19.8l0,16.8l-10.5,10.6l-14.8,-10.4l12.1,-33.4l-23,-32.2l-22.8,32.3l12,33.4l-14.6,10.4l-10.5,-10.6l0,-16.9l-37.7,-19.8l28,81.9l6,19.7l-6.1,0l5.4,7.2l82.7,0l5.4,-7.2l-8.1,0l6.2,-19.7zm-45.8,-9.8l20.8,29.4l-41.5,0l20.7,-29.4z" stroke="#ffffff" fill="#000000" stroke-width="7"/>
  </g>
  <rect stroke="#000000" fill="#ffffff" stroke-width="0" x="50.150322" y="152.486921" width="80.95249" height="7.101771" id="svg_5"/>
  <rect fill="#ffffff" stroke-width="0" x="-55.614231" y="128.972604" width="0" height="0.501254" id="svg_6" stroke="#000000"/>
 </g>
</svg>