<?xml version="1.0" encoding="utf-8"?>
<!-- Generator: Adobe Illustrator 22.1.0, SVG Export Plug-In . SVG Version: 6.00 Build 0)  -->
<svg version="1.1" id="Layer_1" xmlns="http://www.w3.org/2000/svg" xmlns:xlink="http://www.w3.org/1999/xlink" x="0px" y="0px"
	 viewBox="0 0 200 200" style="enable-background:new 0 0 200 200;" xml:space="preserve">
<style type="text/css">
	.st0{fill:#FFFFF8;}
	.st1{fill:#FFFFFF;}
</style>
<g>
	<g>
		<path class="st1" d="M60.3,156.7l-3.2-4.2h5.1l-6.6-21.6L28.8,52.5l33.6,17.6v16.6l11.8,11.9l16.6-11.8L78.7,53.1l21.1-29.9
			L121.1,53l-12.2,33.7l16.8,11.8l11.8-11.9V70.1l33.7-17.6l-26.9,78.3l-6.8,21.7h7.1l-3.1,4.2H60.3z M76.3,151.5h47.4l-23.8-32.5
			L76.3,151.5z"/>
		<path d="M99.8,25.8l19.6,27.5l-11.6,31.9l-0.8,2.2l1.9,1.3L123.8,99l2.1,1.5l1.8-1.8l10.5-10.6l0.9-0.9V86V71l29.5-15.5
			l-25.7,74.8l0,0l0,0l-6.2,19.7l-1.2,3.9h4.1h2.1l-0.9,1.2H61l-0.9-1.2h0.1h4l-1.2-3.9l-6-19.7l0,0l0,0L31.5,55.6L60.9,71v15.1v1.2
			l0.9,0.9l10.5,10.6l1.8,1.8l2.1-1.5l14.6-10.4l1.9-1.3l-0.8-2.1L80.4,53.3L99.8,25.8 M73.3,153h5.9h41.5h5.9l-3.5-4.8l-20.8-28.5
			l-2.4-3.3l-2.4,3.3l-20.7,28.5L73.3,153 M99.8,20.6L77,52.9l12,33.4L74.4,96.7L63.9,86.1V69.2L26.2,49.4l28,81.9l6,19.7h-6.1
			l5.4,7.2h82.7l5.4-7.2h-8.1l6.2-19.7l28.1-81.9L136,69.2V86l-10.5,10.6l-14.8-10.4l12.1-33.4L99.8,20.6L99.8,20.6z M79.2,150
			l20.7-28.5l20.8,28.5H79.2L79.2,150z"/>
	</g>
	<g>
		<polygon class="st1" points="46.9,178.2 46.9,172.6 53.8,172.6 59.2,165 140.3,165 145.7,172.6 153.7,172.6 153.7,178.2 		"/>
		<path d="M139.6,166.5l4.5,6.3l0.9,1.3h1.5h5.7v2.6H48.4v-2.6H53h1.5l0.9-1.3l4.5-6.3H139.6 M141.1,163.5H58.4l-5.4,7.6h-7.6v8.6
			h109.8v-8.6h-8.7L141.1,163.5L141.1,163.5z"/>
	</g>
</g>
</svg>
