<?xml version="1.0" encoding="utf-8"?>
<!-- Generator: Adobe Illustrator 22.1.0, SVG Export Plug-In . SVG Version: 6.00 Build 0)  -->
<svg version="1.1" id="Layer_1" xmlns="http://www.w3.org/2000/svg" xmlns:xlink="http://www.w3.org/1999/xlink" x="0px" y="0px"
	 viewBox="0 0 200 200" style="enable-background:new 0 0 200 200;" xml:space="preserve">
<defs>
    <filter id="f1" x="0" y="0" width="200%" height="200%">
            <feDropShadow dx="0" dy="6" stdDeviation="4" flood-color="#202020"/>
    </filter>
</defs>
<style type="text/css">
	.st0{fill:#FFFFFF;}
	.st1{fill:#FFFFFF;}
</style>
<g filter="url(#f1)">
	<g id="rb">
		<polygon points="154.6,77.2 157.3,40.9 133.2,36.5 133.2,50.9 116.9,50.9 116.9,29.3 100,24.8 83.1,29.3 83.1,50.9 66.8,50.9 
			66.8,36.5 42.7,40.9 45.4,77.2 66.8,92.8 78.9,93.7 66.1,142.6 64.9,150.6 60.3,158.2 138.6,158.2 134,150.6 133.9,142.6 
			121.1,93.7 133.2,92.8 		"/>
	</g>
	<polygon class="st1" points="107.7,126 91.2,126 91.2,110.2 99.5,104.6 107.7,110.2 	"/>
	<polygon points="146.2,170.9 140.8,163.3 58.1,163.3 52.7,170.9 45.1,170.9 45.1,179.5 154.9,179.5 154.9,170.9 	"/>
	<polygon points="146.2,170.9 140.8,163.3 58.1,163.3 52.7,170.9 45.1,170.9 45.1,179.5 154.9,179.5 154.9,170.9 	"/>
</g>
</svg>
