<svg width="180" height="180" xmlns="http://www.w3.org/2000/svg" xmlns:xlink="http://www.w3.org/1999/xlink" preserveAspectRatio="xMidYMid meet">
<filter id="shadow">
      <feDropShadow dx="0" dy="5" stdDeviation="3" flood-color="#222222"/>
</filter> 
 <defs>
  <path d="m181,-1c0,0 0,0 0,0c0,109.2 0,169.87 0,182c0,0 0,0 0,0c-109.2,0 -169.87,0 -182,0c0,0 0,0 0,0c0,-109.2 0,-169.87 0,-182c0,0 0,0 0,0c109.2,0 169.87,0 182,0z" id="b12zCYu7cA"/>
  <path d="m81.75,126l0,-15.8l8.3,-5.6l8.2,5.6l0,15.8l-16.5,0z" id="bgwsAPYCH"/>
  <path id="c2fZNFf8yU"/>
  <path d="m181,-1c0,0 0,0 0,0c0,109.2 0,169.87 0,182c0,0 0,0 0,0c-109.2,0 -169.87,0 -182,0c0,0 0,0 0,0c0,-109.2 0,-169.87 0,-182c0,0 0,0 0,0c109.2,0 169.87,0 182,0z" id="d1yktp2Bo0"/>
  <path d="m147.3,40.9l-24.1,-4.4l0,14.4l-16.3,0l0,-21.6l-16.9,-4.5l-16.9,4.5l0,21.6l-16.3,0l0,-14.4l-24.1,4.4l2.7,36.3l21.4,15.6l5.08,0.56l-6.98,57.24l-4.6,7.6l78.3,0l-4.6,-7.6l-5.87,-57.24l5.07,-0.56l21.4,-15.6l2.7,-36.3z" id="b7Yc6jHsRZ"/>
  <path d="m81.75,126l0,-15.8l8.3,-5.6l8.2,5.6l0,15.8l-16.5,0z" id="b1WyvZAeuQ"/>
  <path id="aytydvtQN"/>
 </defs>
 <g>
  <title>background</title>
  <rect x="-1" y="-1" width="182" height="182" id="canvas_background" fill="none"/>
 </g>
 <g filter="url(#shadow)">
  <title>Layer 1</title>
  <g id="svg_1">
   <g id="svg_2">
    <g id="svg_7">
     <use xlink:href="#bgwsAPYCH" fill="#ffffff" id="svg_8" stroke="#ffffff" stroke-width="7"/>
     <g id="svg_9">
      <use xlink:href="#bgwsAPYCH" fill-opacity="0" stroke="#ffffff" stroke-width="7" stroke-opacity="0" id="svg_10"/>
     </g>
    </g>
    <g id="svg_11">
     <use xlink:href="#c2fZNFf8yU" fill="#000000" id="svg_12" stroke="#ffffff" stroke-width="7"/>
     <g id="svg_13">
      <use xlink:href="#c2fZNFf8yU" fill-opacity="0" stroke="#ffffff" stroke-width="7" id="svg_14"/>
     </g>
    </g>
    <g id="svg_15"/>
    <g id="svg_19">
     <use xlink:href="#b7Yc6jHsRZ" fill="#000000" id="svg_20" stroke="#ffffff" stroke-width="7"/>
     <g id="svg_21">
      <use xlink:href="#b7Yc6jHsRZ" fill-opacity="0" stroke="#ffffff" stroke-width="7" stroke-opacity="0" id="svg_22"/>
     </g>
    </g>
    <g id="svg_23">
     <use xlink:href="#b1WyvZAeuQ" fill="#ffffff" id="svg_24" stroke="#ffffff" stroke-width="0"/>
     <g id="svg_25">
      <use xlink:href="#b1WyvZAeuQ" fill-opacity="0" stroke="#ffffff" stroke-width="0" stroke-opacity="0" id="svg_26"/>
     </g>
    </g>
    <g id="svg_27">
     <use xlink:href="#aytydvtQN" fill="#000000" id="svg_28" stroke="#ffffff" stroke-width="7"/>
     <g id="svg_29">
      <use xlink:href="#aytydvtQN" fill-opacity="0" stroke="#ffffff" stroke-width="7" id="svg_30"/>
     </g>
    </g>
   </g>
  </g>
 </g>
</svg>