<svg width="180" height="180" xmlns="http://www.w3.org/2000/svg">
 <style type="text/css">.st0{fill:#FFFFF8;}
	.st1{fill:#FFFFFF;}</style>

 <g>
  <title>background</title>
  <rect fill="none" id="canvas_background" height="182" width="182" y="-1" x="-1"/>
 </g>
 <g>
  <title>Layer 1</title>
  <g id="svg_1">
   <g id="rb">
    <polygon id="svg_2" points="144.60000228881836,77.19999694824219 147.29999923706055,40.900001525878906 123.19999313354492,36.5 123.19999313354492,50.900001525878906 106.89999771118164,50.900001525878906 106.89999771118164,29.299999237060547 89.99999618530273,24.799999237060547 73.09999465942383,29.299999237060547 73.09999465942383,50.900001525878906 56.79999923706055,50.900001525878906 56.79999923706055,36.5 32.69999694824219,40.900001525878906 35.39999771118164,77.19999694824219 56.79999923706055,92.80000305175781 68.89999771118164,93.69999694824219 56.09999465942383,142.60000610351562 54.89999771118164,150.60000610351562 50.29999542236328,158.1999969482422 128.60000228881836,158.1999969482422 123.99999618530273,150.60000610351562 123.89999008178711,142.60000610351562 111.09999465942383,93.69999694824219 123.19999313354492,92.80000305175781 "/>
   </g>
   <polygon id="svg_3" points="98.25,126 81.75,126 81.75,110.19999694824219 90.05000305175781,104.5999984741211 98.25,110.19999694824219 " class="st1"/>
  </g>
  <path id="svg_6" d="m119.639172,139.793797" opacity="0.5" fill-opacity="null" stroke-opacity="null" stroke-width="null" stroke="null" fill="null"/>
 </g>
</svg>